<?xml version="1.0" standalone="no"?>
<!DOCTYPE svg PUBLIC "-//W3C//DTD SVG 20010904//EN"
 "http://www.w3.org/TR/2001/REC-SVG-20010904/DTD/svg10.dtd">
<svg version="1.0" xmlns="http://www.w3.org/2000/svg"
 width="326.000000pt" height="391.000000pt" viewBox="0 0 326.000000 391.000000"
 preserveAspectRatio="xMidYMid meet">

<g transform="translate(0.000000,391.000000) scale(0.100000,-0.100000)"
fill="#000000" stroke="none">
<path d="M1461 3900 c-294 -37 -590 -185 -830 -415 -307 -294 -513 -712 -588
-1195 -24 -159 -24 -509 0 -670 140 -913 762 -1575 1517 -1616 603 -34 1167
338 1469 967 97 202 158 401 197 644 26 154 26 514 1 675 -127 817 -630 1432
-1296 1586 -121 28 -345 39 -470 24z m424 -55 c299 -62 550 -206 783 -450 215
-225 388 -546 472 -874 47 -187 64 -326 64 -556 1 -298 -29 -491 -116 -745
-157 -459 -474 -843 -854 -1034 -352 -177 -747 -191 -1112 -40 -465 192 -845
669 -992 1243 -47 187 -64 326 -64 556 -1 298 29 491 116 745 168 492 511 888
927 1069 116 51 228 81 396 105 62 9 303 -3 380 -19z"/>
<path d="M1590 3784 c0 -3 10 -14 21 -23 21 -17 21 -20 9 -137 -13 -129 -14
-134 -36 -134 -8 0 -14 -4 -14 -10 0 -5 25 -10 56 -10 56 0 56 0 34 18 -22 18
-22 21 -14 123 l9 104 95 -137 c52 -76 100 -138 106 -138 5 0 21 55 33 123 27
141 34 157 64 158 21 0 21 1 2 8 -11 5 -40 12 -65 15 l-45 7 23 -19 24 -18
-17 -87 c-10 -48 -21 -87 -26 -87 -4 0 -43 52 -86 115 -52 77 -85 117 -100
120 -64 14 -73 15 -73 9z"/>
<path d="M1261 3721 c-9 -6 -15 -50 -21 -156 -7 -117 -12 -150 -26 -166 -22
-24 -7 -24 61 1 49 18 50 21 10 24 -17 1 -21 9 -23 49 -3 46 -2 48 32 62 20 8
43 15 53 15 17 0 63 -58 63 -79 0 -5 -10 -16 -22 -25 -13 -10 -16 -15 -8 -13
8 3 41 10 73 17 56 13 73 26 40 32 -9 2 -55 57 -102 123 -84 118 -102 134
-130 116z m53 -101 l26 -40 -25 -10 c-42 -16 -45 -13 -45 40 0 28 4 50 9 50 4
0 20 -18 35 -40z"/>
<path d="M2102 3660 c11 -18 6 -34 -42 -128 -44 -86 -59 -107 -77 -107 -45 -1
-31 -13 66 -58 79 -38 109 -47 152 -47 63 0 111 24 132 67 55 106 17 173 -144
254 -89 44 -105 48 -87 19z m173 -102 c23 -28 27 -39 23 -80 -12 -118 -128
-171 -226 -102 l-23 16 62 118 62 119 37 -19 c21 -11 50 -34 65 -52z"/>
<path d="M860 3518 c-62 -44 -74 -62 -37 -53 22 6 32 -4 97 -95 70 -98 72
-101 55 -120 -34 -38 5 -20 90 41 47 34 88 65 91 71 9 14 -6 79 -17 73 -5 -4
-9 -19 -9 -35 0 -21 -10 -37 -37 -59 -21 -17 -43 -31 -49 -31 -7 0 -44 44 -82
98 -68 93 -70 98 -56 120 9 13 14 25 12 27 -2 2 -28 -15 -58 -37z"/>
<path d="M1465 3375 c-444 -82 -793 -480 -911 -1039 -32 -150 -44 -456 -24
-613 45 -359 194 -687 415 -909 146 -148 306 -241 492 -285 116 -28 327 -23
443 11 164 47 304 133 440 269 280 281 431 684 431 1146 0 457 -146 856 -414
1128 -201 205 -442 308 -712 306 -49 0 -121 -7 -160 -14z m415 -55 c165 -49
307 -138 440 -276 177 -185 301 -434 360 -721 105 -523 -22 -1071 -335 -1436
-123 -144 -326 -273 -500 -318 -113 -30 -308 -30 -420 0 -294 78 -550 308
-705 634 -253 529 -213 1209 98 1682 58 87 197 234 277 290 112 80 260 143
395 169 14 2 90 3 170 1 113 -2 161 -8 220 -25z"/>
<path d="M1643 3148 c-13 -92 -43 -226 -110 -488 -80 -311 -73 -463 33 -775
134 -390 139 -423 78 -532 l-36 -65 -24 36 c-14 20 -47 85 -73 144 -55 121
-56 131 -71 443 -11 238 -11 240 -115 459 -41 85 -91 208 -112 273 -21 64 -43
117 -50 117 -11 0 -30 -71 -52 -195 -6 -33 -34 -143 -62 -245 -30 -106 -52
-206 -52 -235 0 -41 16 -88 86 -255 110 -259 118 -275 178 -346 28 -33 71
-101 97 -153 50 -99 61 -111 204 -206 l57 -37 43 22 c121 62 198 200 198 354
0 49 11 85 64 220 35 89 69 179 75 201 15 56 13 194 -4 300 -8 50 -15 146 -15
214 0 141 0 140 -154 468 -42 89 -94 205 -115 259 -21 54 -43 100 -48 101 -5
2 -14 -34 -20 -79z m305 -935 c2 -9 -7 -13 -27 -13 -30 0 -46 11 -34 24 11 11
56 2 61 -11z"/>
<path d="M2286 2483 c-19 -82 -45 -193 -56 -248 -34 -160 -49 -203 -115 -340
-74 -153 -87 -203 -115 -465 -36 -334 -33 -326 -186 -418 -66 -38 -144 -83
-175 -98 l-57 -27 -59 46 c-128 98 -181 173 -290 405 -39 84 -87 166 -128 220
-80 107 -157 259 -186 370 -13 47 -27 81 -33 79 -15 -5 -83 -341 -92 -449 l-7
-86 93 -171 c50 -93 104 -182 118 -197 32 -32 191 -153 279 -212 41 -28 111
-59 206 -92 l143 -49 75 27 c50 19 100 48 152 90 122 97 162 122 322 202 l150
75 51 101 c78 156 154 443 154 587 0 57 -34 208 -85 377 -14 47 -39 150 -56
230 -39 191 -39 190 -54 190 -9 0 -25 -51 -49 -147z"/>
<path d="M626 3305 c-38 -37 -46 -51 -46 -80 0 -69 49 -89 146 -60 73 22 102
20 116 -10 22 -49 -38 -106 -97 -91 -34 9 -32 -6 4 -27 l29 -17 51 48 c44 41
51 53 51 85 0 72 -68 107 -147 76 -81 -32 -123 -27 -123 15 0 35 33 58 80 58
22 0 40 1 40 3 0 2 -13 13 -29 24 l-28 20 -47 -44z"/>
<path d="M2535 3246 c-42 -18 -81 -67 -89 -110 -10 -55 9 -109 61 -166 41 -46
49 -50 77 -44 48 10 55 24 12 24 -30 0 -45 7 -71 33 -44 44 -52 77 -30 133 12
31 29 53 56 71 110 73 235 -21 184 -139 -9 -23 4 -22 34 2 23 20 23 20 6 62
-47 118 -148 174 -240 134z"/>
<path d="M428 3032 c-39 -65 -40 -69 -10 -51 16 10 35 2 118 -46 108 -64 116
-71 110 -97 -8 -33 10 -18 42 35 33 54 42 81 20 59 -20 -20 -39 -14 -138 46
-79 48 -96 62 -100 87 -5 29 -6 28 -42 -33z"/>
<path d="M2733 2889 c-45 -22 -83 -82 -83 -130 0 -115 104 -214 204 -195 47 9
102 57 117 103 25 78 -20 186 -94 222 -55 26 -91 26 -144 0z m166 -43 c32 -17
51 -54 51 -101 0 -70 -106 -146 -184 -131 -73 14 -110 105 -67 169 43 66 136
95 200 63z"/>
<path d="M231 2612 c-16 -53 -33 -110 -36 -127 l-7 -30 20 24 19 24 109 -33
c123 -36 137 -44 131 -77 -2 -13 -1 -23 3 -23 7 0 80 234 80 257 0 6 -13 16
-30 22 -34 11 -38 6 -14 -20 14 -15 15 -25 5 -66 -19 -77 -21 -78 -81 -62 -28
8 -51 18 -52 22 0 4 5 28 11 52 9 34 16 45 31 45 11 0 20 4 20 8 0 12 -80 35
-88 26 -4 -4 -1 -9 6 -11 15 -6 16 -40 1 -82 -10 -29 -14 -31 -43 -25 -65 14
-78 22 -70 47 27 85 31 92 60 97 31 6 25 13 -18 24 -26 6 -27 4 -57 -92z"/>
<path d="M3049 2500 c-4 -23 -14 -27 -109 -52 -131 -33 -150 -34 -157 -8 -3
11 -9 18 -13 15 -4 -2 5 -55 19 -117 26 -111 27 -112 60 -120 50 -13 59 -4 19
19 -28 16 -37 30 -47 68 -7 26 -8 51 -4 55 11 9 196 50 227 50 16 0 26 -6 26
-14 0 -8 5 -18 11 -21 11 -8 4 42 -16 110 -11 35 -12 37 -16 15z"/>
<path d="M245 2333 c-27 -7 -63 -41 -83 -78 -15 -28 -34 -255 -22 -255 3 0 10
8 17 18 10 16 22 18 95 15 141 -6 168 -12 168 -34 0 -10 4 -19 9 -19 15 0 23
183 10 235 -23 91 -103 140 -194 118z m112 -72 c25 -12 48 -32 57 -50 20 -37
21 -120 3 -127 -7 -2 -69 -1 -137 3 -138 9 -132 4 -118 82 9 51 30 78 73 97
41 18 73 17 122 -5z"/>
<path d="M3117 2124 c-6 -18 -18 -22 -90 -27 -149 -12 -174 -10 -182 16 -13
41 -18 -9 -10 -118 l7 -102 32 -11 c50 -18 53 -15 18 17 -28 26 -32 36 -32 79
l0 49 53 7 c28 3 85 6 125 6 70 0 73 -1 84 -27 10 -24 12 -25 15 -8 2 11 0 47
-5 80 -6 44 -10 54 -15 39z"/>
<path d="M225 1906 c-78 -35 -118 -151 -81 -239 18 -43 78 -95 119 -102 45 -9
108 9 135 38 52 55 65 142 33 212 -22 48 -44 69 -94 90 -44 18 -72 19 -112 1z
m139 -60 c45 -19 66 -52 66 -102 0 -53 -39 -97 -99 -114 -98 -26 -181 20 -181
102 0 54 21 85 74 109 49 22 95 24 140 5z"/>
<path d="M2841 1819 c-8 -33 -41 -229 -41 -250 0 -26 15 -39 47 -39 12 0 11 5
-5 25 -17 21 -18 32 -11 72 13 67 17 75 36 70 10 -3 35 -8 56 -12 41 -7 44
-15 26 -77 -5 -22 -16 -38 -24 -38 -34 0 -11 -18 28 -22 50 -6 57 -2 33 15
-15 11 -16 20 -9 62 6 35 13 49 23 48 85 -9 90 -12 89 -51 -2 -60 -13 -87 -37
-90 -35 -5 -26 -22 11 -22 l34 0 20 120 c11 67 16 123 13 125 -4 3 -10 -4 -13
-15 -6 -24 -21 -25 -146 -4 -107 18 -118 24 -124 62 -2 15 -5 24 -6 21z"/>
<path d="M469 1524 c-1 -5 -2 -15 -3 -23 -1 -14 -53 -35 -176 -70 l-70 -19
-15 21 -15 21 1 -24 c1 -26 36 -131 39 -117 5 17 8 28 9 37 0 5 19 14 42 20
22 6 46 13 53 16 9 3 22 -20 40 -70 14 -41 26 -79 26 -84 0 -6 -23 -18 -51
-27 -47 -16 -51 -16 -70 1 -25 22 -24 7 3 -61 25 -59 35 -68 40 -33 2 19 22
30 116 64 101 38 114 40 128 27 8 -9 17 -13 21 -10 7 8 -40 127 -50 127 -5 0
-5 -9 -2 -20 5 -17 -1 -24 -40 -41 -26 -11 -53 -18 -60 -15 -15 5 -61 143 -52
152 3 3 25 12 50 19 39 12 47 12 58 -1 24 -29 26 -12 8 48 -20 62 -28 79 -30
62z"/>
<path d="M2800 1412 c-60 -30 -105 -120 -98 -199 3 -31 8 -38 37 -48 21 -7 38
-21 43 -36 9 -22 11 -20 34 35 29 72 31 97 5 65 -17 -22 -21 -22 -61 -10 -42
12 -42 13 -37 49 4 25 18 48 42 70 59 54 150 42 209 -28 53 -63 22 -164 -54
-176 -22 -4 -40 -10 -40 -15 0 -7 71 -32 76 -26 1 1 17 29 35 62 60 107 40
207 -51 253 -53 27 -93 28 -140 4z"/>
<path d="M610 1105 c0 -13 -11 -50 -25 -81 -20 -46 -28 -55 -42 -49 -45 19
-72 17 -97 -8 -42 -42 -35 -81 31 -181 58 -87 78 -106 67 -62 -5 22 4 31 93
90 100 67 120 75 141 54 23 -23 12 6 -25 64 -42 64 -55 73 -47 30 5 -24 0 -32
-35 -55 l-40 -27 -15 21 c-15 22 -12 39 19 99 18 35 19 70 3 105 -14 32 -28
32 -28 0z m-27 -193 c15 -15 27 -33 27 -39 0 -9 -102 -83 -115 -83 -10 0 -35
60 -35 84 0 29 42 66 74 66 12 0 34 -13 49 -28z"/>
<path d="M2586 1018 c-82 -130 -83 -132 -54 -152 31 -22 42 -20 24 5 -13 20
-13 25 1 53 9 17 25 44 35 59 l20 28 46 -27 c26 -15 49 -28 51 -30 2 -2 -9
-24 -24 -49 -20 -36 -31 -46 -46 -42 -31 8 -22 -9 17 -32 38 -23 55 -21 35 3
-10 12 -7 23 14 55 14 23 28 41 32 41 3 0 26 -12 50 -26 l44 -25 -22 -37 c-37
-61 -50 -72 -75 -66 -13 4 -24 4 -24 0 0 -6 61 -39 64 -34 19 22 126 203 126
211 0 5 -9 2 -20 -8 -19 -18 -23 -16 -126 46 -104 63 -105 65 -100 97 2 17 3
32 1 32 -2 0 -33 -46 -69 -102z"/>
<path d="M2368 644 c-14 -14 -20 -15 -32 -5 -20 17 -41 4 -25 -15 9 -11 8 -19
-6 -34 -17 -19 -17 -20 1 -20 11 0 24 4 30 9 5 6 30 -15 66 -57 58 -70 62 -92
13 -92 -29 0 -55 -10 -55 -20 0 -18 44 -17 95 3 49 20 57 27 77 72 20 45 24
82 11 95 -6 7 -28 -31 -29 -52 -2 -26 -12 -48 -23 -48 -5 0 -35 29 -66 65 -47
54 -55 68 -45 80 18 22 8 38 -12 19z"/>
<path d="M890 637 c0 -7 5 -18 11 -24 9 -9 -2 -27 -42 -72 -30 -33 -59 -61
-66 -61 -14 0 -32 30 -27 45 4 11 -23 51 -30 44 -13 -13 -7 -50 15 -95 22 -48
28 -53 78 -69 31 -10 64 -14 80 -10 25 6 26 7 6 21 -11 8 -29 13 -39 10 -11
-3 -28 0 -38 5 -18 10 -17 12 11 47 87 106 88 107 105 93 8 -7 21 -9 27 -5 9
5 7 11 -5 20 -14 10 -15 17 -7 32 13 25 4 34 -20 19 -14 -9 -21 -9 -31 1 -16
16 -28 15 -28 -1z"/>
<path d="M2027 493 c-10 -16 -60 -244 -55 -249 3 -2 28 4 56 15 l51 20 18 -40
c16 -36 20 -39 36 -27 15 11 16 18 6 46 -10 29 -9 35 7 47 21 15 13 29 -18 30
-16 0 -27 17 -52 77 -34 83 -41 94 -49 81z m22 -136 l20 -47 -30 -16 c-17 -8
-34 -14 -38 -12 -4 2 -1 31 7 66 7 35 15 62 17 60 2 -2 13 -25 24 -51z"/>
<path d="M1228 470 c-58 -20 -75 -35 -30 -27 38 8 39 16 -11 -113 -30 -76 -37
-86 -63 -90 -27 -5 -25 -7 29 -28 61 -23 95 -29 65 -11 -25 14 -23 25 28 155
25 64 42 119 37 123 -4 4 -29 0 -55 -9z"/>
<path d="M1763 427 l-63 -11 0 -50 c0 -78 8 -97 36 -90 58 15 105 -33 90 -91
-9 -36 -50 -54 -74 -32 -24 22 -54 22 -50 0 4 -22 51 -33 93 -22 62 18 93 86
63 142 -18 35 -40 46 -90 47 -46 0 -48 1 -48 29 0 28 2 30 55 36 49 7 55 10
55 31 0 13 -1 23 -2 22 -2 0 -31 -6 -65 -11z"/>
<path d="M1426 409 c-31 -24 -35 -72 -9 -101 16 -18 16 -20 -15 -44 -47 -37
-43 -93 9 -119 39 -21 82 -19 112 5 36 29 42 65 17 107 l-20 35 25 20 c53 41
14 118 -60 118 -18 0 -44 -9 -59 -21z m95 -10 c22 -22 19 -52 -10 -82 -17 -17
-18 -17 -44 3 -44 35 -31 98 21 100 6 0 21 -9 33 -21z m-34 -151 c31 -36 34
-45 22 -72 -16 -33 -44 -42 -74 -22 -30 20 -34 70 -8 98 21 24 35 23 60 -4z"/>
</g>
</svg>
